<?xml version="1.0" encoding="UTF-8" standalone="no"?><svg xmlns="http://www.w3.org/2000/svg" xmlns:xlink="http://www.w3.org/1999/xlink" contentScriptType="application/ecmascript" contentStyleType="text/css" height="768px" preserveAspectRatio="none" style="width:1477px;height:768px;" version="1.1" viewBox="0 0 1477 768" width="1477px" zoomAndPan="magnify"><defs><filter height="300%" id="fhfq0xrb38rx9" width="300%" x="-1" y="-1"><feGaussianBlur result="blurOut" stdDeviation="2.0"/><feColorMatrix in="blurOut" result="blurOut2" type="matrix" values="0 0 0 0 0 0 0 0 0 0 0 0 0 0 0 0 0 0 .4 0"/><feOffset dx="4.0" dy="4.0" in="blurOut2" result="blurOut3"/><feBlend in="SourceGraphic" in2="blurOut3" mode="normal"/></filter></defs><g><!--MD5=[bad0e800654e73e4da8f602f5d7313f6]
cluster AMiRoBLT_node--><polygon fill="#FFFFFF" filter="url(#fhfq0xrb38rx9)" points="16,314,26,304,287,304,287,746,277,756,16,756,16,314" style="stroke: #000000; stroke-width: 1.5;"/><line style="stroke: #000000; stroke-width: 1.5;" x1="277" x2="286" y1="314" y2="305"/><line style="stroke: #000000; stroke-width: 1.5;" x1="16" x2="277" y1="314" y2="314"/><line style="stroke: #000000; stroke-width: 1.5;" x1="277" x2="277" y1="314" y2="756"/><text fill="#000000" font-family="sans-serif" font-size="14" font-weight="bold" lengthAdjust="spacingAndGlyphs" textLength="83" x="106" y="329.9951">AMiRo-BLT</text><!--MD5=[f1cc9d144546a296b865d8bd496ea637]
cluster ChibiOS_node--><polygon fill="#FFFFFF" filter="url(#fhfq0xrb38rx9)" points="295,314,305,304,1094,304,1094,561,1084,571,295,571,295,314" style="stroke: #000000; stroke-width: 1.5;"/><line style="stroke: #000000; stroke-width: 1.5;" x1="1084" x2="1093" y1="314" y2="305"/><line style="stroke: #000000; stroke-width: 1.5;" x1="295" x2="1084" y1="314" y2="314"/><line style="stroke: #000000; stroke-width: 1.5;" x1="1084" x2="1084" y1="314" y2="571"/><text fill="#000000" font-family="sans-serif" font-size="14" font-weight="bold" lengthAdjust="spacingAndGlyphs" textLength="61" x="660" y="329.9951">ChibiOS</text><!--MD5=[44bceaf43c82bf0ff4bd766ef7ee5c0b]
cluster AMiRoLLD_node--><polygon fill="#FFFFFF" filter="url(#fhfq0xrb38rx9)" points="1113,314,1123,304,1455,304,1455,561,1445,571,1113,571,1113,314" style="stroke: #000000; stroke-width: 1.5;"/><line style="stroke: #000000; stroke-width: 1.5;" x1="1445" x2="1454" y1="314" y2="305"/><line style="stroke: #000000; stroke-width: 1.5;" x1="1113" x2="1445" y1="314" y2="314"/><line style="stroke: #000000; stroke-width: 1.5;" x1="1445" x2="1445" y1="314" y2="571"/><text fill="#000000" font-family="sans-serif" font-size="14" font-weight="bold" lengthAdjust="spacingAndGlyphs" textLength="83" x="1238.5" y="329.9951">AMiRo-LLD</text><!--MD5=[93a15f3f07216d1460831727d04db797]
cluster AMiRoOS_node--><polygon fill="#FFFFFF" filter="url(#fhfq0xrb38rx9)" points="818,16,828,6,1029,6,1029,263,1019,273,818,273,818,16" style="stroke: #000000; stroke-width: 1.5;"/><line style="stroke: #000000; stroke-width: 1.5;" x1="1019" x2="1028" y1="16" y2="7"/><line style="stroke: #000000; stroke-width: 1.5;" x1="818" x2="1019" y1="16" y2="16"/><line style="stroke: #000000; stroke-width: 1.5;" x1="1019" x2="1019" y1="16" y2="273"/><text fill="#000000" font-family="sans-serif" font-size="14" font-weight="bold" lengthAdjust="spacingAndGlyphs" textLength="76" x="881.5" y="31.9951">AMiRo-OS</text><!--MD5=[1850e5a2fe35a38ef3e3a0bb4dbac5ab]
entity OpenBLT--><rect fill="#D3D3D3" filter="url(#fhfq0xrb38rx9)" height="46.2969" style="stroke: #A80036; stroke-width: 1.5;" width="104" x="24" y="702"/><rect fill="#D3D3D3" height="10" style="stroke: #A80036; stroke-width: 1.5;" width="15" x="108" y="707"/><rect fill="#D3D3D3" height="2" style="stroke: #A80036; stroke-width: 1.5;" width="4" x="106" y="709"/><rect fill="#D3D3D3" height="2" style="stroke: #A80036; stroke-width: 1.5;" width="4" x="106" y="713"/><text fill="#000000" font-family="sans-serif" font-size="14" lengthAdjust="spacingAndGlyphs" textLength="64" x="39" y="734.9951">OpenBLT</text><!--MD5=[a96c19cb2b38efd916c00305869501e0]
entity stm32flash--><rect fill="#D3D3D3" filter="url(#fhfq0xrb38rx9)" height="46.2969" style="stroke: #A80036; stroke-width: 1.5;" width="116" x="163" y="702"/><rect fill="#D3D3D3" height="10" style="stroke: #A80036; stroke-width: 1.5;" width="15" x="259" y="707"/><rect fill="#D3D3D3" height="2" style="stroke: #A80036; stroke-width: 1.5;" width="4" x="257" y="709"/><rect fill="#D3D3D3" height="2" style="stroke: #A80036; stroke-width: 1.5;" width="4" x="257" y="713"/><text fill="#000000" font-family="sans-serif" font-size="14" lengthAdjust="spacingAndGlyphs" textLength="76" x="178" y="734.9951">stm32flash</text><!--MD5=[abe44379f03537c20fb177b2ff2e4bb1]
entity amiroblt.h--><ellipse cx="224" cy="365" fill="#FEFECE" filter="url(#fhfq0xrb38rx9)" rx="8" ry="8" style="stroke: #A80036; stroke-width: 2.0;"/><text fill="#000000" font-family="sans-serif" font-size="14" lengthAdjust="spacingAndGlyphs" textLength="68" x="190" y="394.9951">amiroblt.h</text><!--MD5=[9ef024a41f1673202c3a028e831e400a]
entity AMiRoBLT--><rect fill="#FEFECE" filter="url(#fhfq0xrb38rx9)" height="46.2969" style="stroke: #A80036; stroke-width: 1.5;" width="114" x="164" y="517"/><rect fill="#FEFECE" height="10" style="stroke: #A80036; stroke-width: 1.5;" width="15" x="258" y="522"/><rect fill="#FEFECE" height="2" style="stroke: #A80036; stroke-width: 1.5;" width="4" x="256" y="524"/><rect fill="#FEFECE" height="2" style="stroke: #A80036; stroke-width: 1.5;" width="4" x="256" y="528"/><text fill="#000000" font-family="sans-serif" font-size="14" lengthAdjust="spacingAndGlyphs" textLength="74" x="179" y="549.9951">AMiRo-BLT</text><!--MD5=[c2c1884905b4ceff46101fa0c0e1262d]
entity hal.h--><ellipse cx="732" cy="365" fill="#D3D3D3" filter="url(#fhfq0xrb38rx9)" rx="8" ry="8" style="stroke: #A80036; stroke-width: 2.0;"/><text fill="#000000" font-family="sans-serif" font-size="14" lengthAdjust="spacingAndGlyphs" textLength="33" x="715.5" y="394.9951">hal.h</text><!--MD5=[54da4254ff3b9427c3f2dc4cdd81f0ba]
entity osal.h--><ellipse cx="822" cy="365" fill="#D3D3D3" filter="url(#fhfq0xrb38rx9)" rx="8" ry="8" style="stroke: #A80036; stroke-width: 2.0;"/><text fill="#000000" font-family="sans-serif" font-size="14" lengthAdjust="spacingAndGlyphs" textLength="41" x="801.5" y="394.9951">osal.h</text><!--MD5=[acdc3e181996970aa61f56b63b5641aa]
entity cmsis.h--><ellipse cx="436" cy="365" fill="#D3D3D3" filter="url(#fhfq0xrb38rx9)" rx="8" ry="8" style="stroke: #A80036; stroke-width: 2.0;"/><text fill="#000000" font-family="sans-serif" font-size="14" lengthAdjust="spacingAndGlyphs" textLength="53" x="409.5" y="394.9951">cmsis.h</text><!--MD5=[4fbafc4a7743d695410972d91bd051b1]
entity ch.h--><ellipse cx="532" cy="365" fill="#D3D3D3" filter="url(#fhfq0xrb38rx9)" rx="8" ry="8" style="stroke: #A80036; stroke-width: 2.0;"/><text fill="#000000" font-family="sans-serif" font-size="14" lengthAdjust="spacingAndGlyphs" textLength="30" x="517" y="394.9951">ch.h</text><!--MD5=[fa0ee5c5d63269a056b84209237c8646]
entity ch.hpp--><ellipse cx="335" cy="365" fill="#D3D3D3" filter="url(#fhfq0xrb38rx9)" rx="8" ry="8" style="stroke: #A80036; stroke-width: 2.0;"/><text fill="#000000" font-family="sans-serif" font-size="14" lengthAdjust="spacingAndGlyphs" textLength="48" x="311" y="394.9951">ch.hpp</text><!--MD5=[2f420ce408907b6bb6bc71361939dce0]
entity mcuconf.h--><ellipse cx="929" cy="365" fill="#D3D3D3" filter="url(#fhfq0xrb38rx9)" rx="8" ry="8" style="stroke: #A80036; stroke-width: 2.0;"/><text fill="#000000" font-family="sans-serif" font-size="14" lengthAdjust="spacingAndGlyphs" textLength="73" x="892.5" y="394.9951">mcuconf.h</text><!--MD5=[b4b3dff1705adeb17fdb68fd37da65d6]
entity halconf.h--><ellipse cx="1047" cy="365" fill="#D3D3D3" filter="url(#fhfq0xrb38rx9)" rx="8" ry="8" style="stroke: #A80036; stroke-width: 2.0;"/><text fill="#000000" font-family="sans-serif" font-size="14" lengthAdjust="spacingAndGlyphs" textLength="63" x="1015.5" y="394.9951">halconf.h</text><!--MD5=[c537732882b43d9844ff358fbe7f472c]
entity chconf.h--><ellipse cx="632" cy="365" fill="#D3D3D3" filter="url(#fhfq0xrb38rx9)" rx="8" ry="8" style="stroke: #A80036; stroke-width: 2.0;"/><text fill="#000000" font-family="sans-serif" font-size="14" lengthAdjust="spacingAndGlyphs" textLength="60" x="602" y="394.9951">chconf.h</text><!--MD5=[363d0e730d350c3e8d167d17d5855e75]
entity ChibiOS_HAL--><rect fill="#D3D3D3" filter="url(#fhfq0xrb38rx9)" height="46.2969" style="stroke: #A80036; stroke-width: 1.5;" width="125" x="812.5" y="517"/><rect fill="#D3D3D3" height="10" style="stroke: #A80036; stroke-width: 1.5;" width="15" x="917.5" y="522"/><rect fill="#D3D3D3" height="2" style="stroke: #A80036; stroke-width: 1.5;" width="4" x="915.5" y="524"/><rect fill="#D3D3D3" height="2" style="stroke: #A80036; stroke-width: 1.5;" width="4" x="915.5" y="528"/><text fill="#000000" font-family="sans-serif" font-size="14" lengthAdjust="spacingAndGlyphs" textLength="85" x="827.5" y="549.9951">ChibiOS/HAL</text><!--MD5=[7c71aae14aff1d4c22090396dceb73f1]
entity ChibiOS_RT--><rect fill="#D3D3D3" filter="url(#fhfq0xrb38rx9)" height="46.2969" style="stroke: #A80036; stroke-width: 1.5;" width="118" x="523" y="517"/><rect fill="#D3D3D3" height="10" style="stroke: #A80036; stroke-width: 1.5;" width="15" x="621" y="522"/><rect fill="#D3D3D3" height="2" style="stroke: #A80036; stroke-width: 1.5;" width="4" x="619" y="524"/><rect fill="#D3D3D3" height="2" style="stroke: #A80036; stroke-width: 1.5;" width="4" x="619" y="528"/><text fill="#000000" font-family="sans-serif" font-size="14" lengthAdjust="spacingAndGlyphs" textLength="78" x="538" y="549.9951">ChibiOS/RT</text><!--MD5=[8918e0edf34d79d0001ffbab13d060b4]
entity alldconf.h--><ellipse cx="1406" cy="365" fill="#FEFECE" filter="url(#fhfq0xrb38rx9)" rx="8" ry="8" style="stroke: #A80036; stroke-width: 2.0;"/><text fill="#000000" font-family="sans-serif" font-size="14" lengthAdjust="spacingAndGlyphs" textLength="66" x="1373" y="394.9951">alldconf.h</text><!--MD5=[f22507d6019a948c9f1e753a204c1882]
entity periphAL.h--><ellipse cx="1286" cy="365" fill="#FEFECE" filter="url(#fhfq0xrb38rx9)" rx="8" ry="8" style="stroke: #A80036; stroke-width: 2.0;"/><text fill="#000000" font-family="sans-serif" font-size="14" lengthAdjust="spacingAndGlyphs" textLength="73" x="1249.5" y="394.9951">periphAL.h</text><!--MD5=[a8b2669114d9706e97bce84027334bac]
entity alldh--><ellipse cx="1164" cy="365" fill="#FEFECE" filter="url(#fhfq0xrb38rx9)" rx="8" ry="8" style="stroke: #A80036; stroke-width: 2.0;"/><text fill="#000000" font-family="sans-serif" font-size="14" lengthAdjust="spacingAndGlyphs" textLength="71" x="1128.5" y="394.9951">amiro-lld.h</text><!--MD5=[a6d17afc91ea770039ad6b152e003e63]
entity AMiRoLLD--><rect fill="#FEFECE" filter="url(#fhfq0xrb38rx9)" height="46.2969" style="stroke: #A80036; stroke-width: 1.5;" width="113" x="1229.5" y="517"/><rect fill="#FEFECE" height="10" style="stroke: #A80036; stroke-width: 1.5;" width="15" x="1322.5" y="522"/><rect fill="#FEFECE" height="2" style="stroke: #A80036; stroke-width: 1.5;" width="4" x="1320.5" y="524"/><rect fill="#FEFECE" height="2" style="stroke: #A80036; stroke-width: 1.5;" width="4" x="1320.5" y="528"/><text fill="#000000" font-family="sans-serif" font-size="14" lengthAdjust="spacingAndGlyphs" textLength="73" x="1244.5" y="549.9951">AMiRo-LLD</text><!--MD5=[5308482273029909589583f5ed180a1b]
entity osconf.h--><ellipse cx="864" cy="67" fill="#FEFECE" filter="url(#fhfq0xrb38rx9)" rx="8" ry="8" style="stroke: #A80036; stroke-width: 2.0;"/><text fill="#000000" font-family="sans-serif" font-size="14" lengthAdjust="spacingAndGlyphs" textLength="60" x="834" y="96.9951">osconf.h</text><!--MD5=[7632218e63c6e8d767e4e0b35b917b55]
entity amiroos.h--><ellipse cx="979" cy="67" fill="#FEFECE" filter="url(#fhfq0xrb38rx9)" rx="8" ry="8" style="stroke: #A80036; stroke-width: 2.0;"/><text fill="#000000" font-family="sans-serif" font-size="14" lengthAdjust="spacingAndGlyphs" textLength="68" x="945" y="96.9951">amiroos.h</text><!--MD5=[39bec0b3a3c36eca377cc878ed94d2cd]
entity AMiRoOS--><rect fill="#FEFECE" filter="url(#fhfq0xrb38rx9)" height="46.2969" style="stroke: #A80036; stroke-width: 1.5;" width="108" x="875" y="219"/><rect fill="#FEFECE" height="10" style="stroke: #A80036; stroke-width: 1.5;" width="15" x="963" y="224"/><rect fill="#FEFECE" height="2" style="stroke: #A80036; stroke-width: 1.5;" width="4" x="961" y="226"/><rect fill="#FEFECE" height="2" style="stroke: #A80036; stroke-width: 1.5;" width="4" x="961" y="230"/><text fill="#000000" font-family="sans-serif" font-size="14" lengthAdjust="spacingAndGlyphs" textLength="68" x="890" y="251.9951">AMiRo-OS</text><!--MD5=[53f97ef04872e372168f439f9b9923ba]
link AMiRoBLT to OpenBLT--><path d="M202.9288,563.0563 C178.8219,593.8135 135.7946,648.7104 106.5882,685.9737 " fill="none" id="AMiRoBLT-&gt;OpenBLT" style="stroke: #A80036; stroke-width: 1.0;"/><polygon fill="none" points="111.9177,690.5215,94.0706,701.9444,100.8989,681.8851,111.9177,690.5215" style="stroke: #A80036; stroke-width: 1.0;"/><text fill="#000000" font-family="sans-serif" font-size="13" lengthAdjust="spacingAndGlyphs" textLength="31" x="155" y="637.0669">forks</text><!--MD5=[bb95fd8ada897b34729165f896554ef8]
link AMiRoBLT to stm32flash--><path d="M221,563.0563 C221,596.9378 221,660.1123 221,696.7397 " fill="none" id="AMiRoBLT-&gt;stm32flash" style="stroke: #A80036; stroke-width: 1.0; stroke-dasharray: 7.0,7.0;"/><polygon fill="#A80036" points="221,701.9444,225,692.9444,221,696.9444,217,692.9444,221,701.9444" style="stroke: #A80036; stroke-width: 1.0;"/><text fill="#000000" font-family="sans-serif" font-size="13" lengthAdjust="spacingAndGlyphs" textLength="44" x="222" y="637.0669">utilizes</text><!--MD5=[59781e7a01f498f34f1c659f0f2f5162]
link amiroblt.h to AMiRoBLT--><path d="M223.8387,374.4088 C223.3811,401.1028 222.0647,477.8944 221.3976,516.8065 " fill="none" id="amiroblt.h-AMiRoBLT" style="stroke: #A80036; stroke-width: 1.0;"/><!--MD5=[5d6d0a3d6cf3baab848b2f34dc57ad54]
reverse link mcuconf.h to ChibiOS_HAL--><path d="M923.1371,384.0002 C913.1671,416.3104 892.9445,481.8464 882.1568,516.8065 " fill="none" id="mcuconf.h&lt;-ChibiOS_HAL" style="stroke: #A80036; stroke-width: 1.0;"/><path d="M917.1078,374.8565 A9,9 0 0 0 933.2703 379.8438" fill="none" style="stroke: #A80036; stroke-width: 1.5;"/><!--MD5=[47d273e38ecd8774355d850e440ffea7]
reverse link halconf.h to ChibiOS_HAL--><path d="M1030.3496,381.9408 C999.384,413.4465 932.9036,481.0864 897.7959,516.8065 " fill="none" id="halconf.h&lt;-ChibiOS_HAL" style="stroke: #A80036; stroke-width: 1.0;"/><path d="M1029.5631,370.6759 A9,9 0 0 0 1041.6265 382.5324" fill="none" style="stroke: #A80036; stroke-width: 1.5;"/><!--MD5=[65127828af5c24c2b05342b71a65cad6]
link hal.h to ChibiOS_HAL--><path d="M739.6883,374.4088 C761.5011,401.1028 824.2509,477.8944 856.0476,516.8065 " fill="none" id="hal.h-ChibiOS_HAL" style="stroke: #A80036; stroke-width: 1.0;"/><!--MD5=[1b1c9716fa18e55b049064bacd3df54d]
reverse link osal.h to ChibiOS_HAL--><path d="M827.7543,384.0002 C837.5397,416.3104 857.3878,481.8464 867.9757,516.8065 " fill="none" id="osal.h&lt;-ChibiOS_HAL" style="stroke: #A80036; stroke-width: 1.0;"/><path d="M817.6476,379.8063 A9,9 0 0 0 833.8359 374.9033" fill="none" style="stroke: #A80036; stroke-width: 1.5;"/><!--MD5=[d9a145d0c7e0a361daeda2794cedd173]
reverse link chconf.h to ChibiOS_RT--><path d="M626.4504,384.4235 C617.1772,416.8797 598.5719,481.9984 588.6267,516.8065 " fill="none" id="chconf.h&lt;-ChibiOS_RT" style="stroke: #A80036; stroke-width: 1.0;"/><path d="M620.3343,375.0451 A9,9 0 0 0 636.5979 379.692" fill="none" style="stroke: #A80036; stroke-width: 1.5;"/><!--MD5=[6a0db9cffa24979d973eab3e6bb1e4a5]
reverse link hal.h to ChibiOS_RT--><path d="M717.1329,382.3449 C689.9815,414.0216 632.3671,481.2384 601.8801,516.8065 " fill="none" id="hal.h&lt;-ChibiOS_RT" style="stroke: #A80036; stroke-width: 1.0;"/><path d="M715.5108,371.2421 A9,9 0 0 0 728.3533 382.2498" fill="none" style="stroke: #A80036; stroke-width: 1.5;"/><!--MD5=[18d14a9b31cc3a3e0f4b4f61a2be0712]
link osal.h to ChibiOS_RT--><path d="M812.8848,371.6465 C780.3481,395.3712 668.927,476.6158 613.6381,516.9306 " fill="none" id="osal.h-ChibiOS_RT" style="stroke: #A80036; stroke-width: 1.0;"/><!--MD5=[0845dcb8464cc3bf10353e9e15722584]
link cmsis.h to ChibiOS_RT--><path d="M443.8496,374.4088 C466.12,401.1028 530.1862,477.8944 562.65,516.8065 " fill="none" id="cmsis.h-ChibiOS_RT" style="stroke: #A80036; stroke-width: 1.0;"/><!--MD5=[04d35fdcba9a99f27989be596642a519]
link ch.h to ChibiOS_RT--><path d="M534.6882,374.4088 C542.3151,401.1028 564.2555,477.8944 575.3733,516.8065 " fill="none" id="ch.h-ChibiOS_RT" style="stroke: #A80036; stroke-width: 1.0;"/><!--MD5=[c64e875a8a363af41ce3d56991addd33]
link ch.hpp to ChibiOS_RT--><path d="M344.0838,371.4359 C377.1572,394.8685 492.1916,476.3706 549.3079,516.8376 " fill="none" id="ch.hpp-ChibiOS_RT" style="stroke: #A80036; stroke-width: 1.0;"/><!--MD5=[85f16092ae798ad62fe91ca545ad6048]
reverse link alldconf.h to AMiRoLLD--><path d="M1393.8265,382.753 C1371.9916,414.5955 1326.1894,481.3904 1301.9041,516.8065 " fill="none" id="alldconf.h&lt;-AMiRoLLD" style="stroke: #A80036; stroke-width: 1.0;"/><path d="M1390.8326,372.1647 A9,9 0 0 0 1404.7824 381.7303" fill="none" style="stroke: #A80036; stroke-width: 1.5;"/><!--MD5=[e5739afad639e5bc446a1d4be0511d1d]
reverse link periphAL.h to AMiRoLLD--><path d="M1286,384.4235 C1286,416.8797 1286,481.9984 1286,516.8065 " fill="none" id="periphAL.h&lt;-AMiRoLLD" style="stroke: #A80036; stroke-width: 1.0;"/><path d="M1277.5428,377.4871 A9,9 0 0 0 1294.4573 377.4869" fill="none" style="stroke: #A80036; stroke-width: 1.5;"/><!--MD5=[adab66a821e6a4398482e8344e16bc74]
link alldh to AMiRoLLD--><path d="M1170.5592,374.4088 C1189.1688,401.1028 1242.7035,477.8944 1269.8308,516.8065 " fill="none" id="alldh-AMiRoLLD" style="stroke: #A80036; stroke-width: 1.0;"/><!--MD5=[e0d071a9c55cb0a37548507a0ec15a0b]
reverse link osconf.h to AMiRoOS--><path d="M871.0572,86.0002 C883.0581,118.3104 907.4001,183.8464 920.3853,218.8065 " fill="none" id="osconf.h&lt;-AMiRoOS" style="stroke: #A80036; stroke-width: 1.0;"/><path d="M860.6385,82.2391 A9,9 0 0 0 876.4945 76.3496" fill="none" style="stroke: #A80036; stroke-width: 1.5;"/><!--MD5=[4c3cccfc37c790f2374a1dcab72931e2]
link amiroos.h to AMiRoOS--><path d="M976.3118,76.4088 C968.6849,103.1028 946.7445,179.8944 935.6267,218.8065 " fill="none" id="amiroos.h-AMiRoOS" style="stroke: #A80036; stroke-width: 1.0;"/><!--MD5=[eb1de92b7306a1498025501c016982f6]
link AMiRoOS to mcuconf.h--><path d="M929,265.1354 C929,292.5538 929,336.9112 929,355.9009 " fill="none" id="AMiRoOS-mcuconf.h" style="stroke: #A80036; stroke-width: 1.0;"/><!--MD5=[01bd928d304a34cf4da62b23ee0f5024]
link AMiRoOS to halconf.h--><path d="M952.4964,265.0264 C964.1893,276.6038 978.4674,290.9204 991,304 C1008.3063,322.0617 1027.9574,343.7512 1038.7708,355.793 " fill="none" id="AMiRoOS-halconf.h" style="stroke: #A80036; stroke-width: 1.0;"/><!--MD5=[efef991c0b8ecf0be966f4a469b5fda9]
link AMiRoOS to chconf.h--><path d="M874.8525,247.0004 C823.6408,253.711 746.1784,269.1298 688,304 C665.8043,317.3034 647.1358,342.0564 638.0075,355.5809 " fill="none" id="AMiRoOS-chconf.h" style="stroke: #A80036; stroke-width: 1.0;"/><!--MD5=[a8dfa293c4537392721934751fb4cdee]
link AMiRoOS to hal.h--><path d="M874.9536,256.0825 C844.0876,265.9767 805.9031,281.5101 777,304 C761.9561,315.7059 749.5301,333.6931 741.5756,347.1064 " fill="none" id="AMiRoOS-&gt;hal.h" style="stroke: #A80036; stroke-width: 1.0;"/><path d="M745.4774,357.3912 A9,9 0 0 0 730.7521 349.0688" fill="none" style="stroke: #A80036; stroke-width: 1.5;"/><!--MD5=[4b4ce5bea6747bce8336b12ee2355926]
link AMiRoOS to ch.h--><path d="M874.747,246.6188 C788.7655,254.7486 625.9211,273.6836 577,304 C560.6173,314.1524 548.2516,332.6528 540.6684,346.627 " fill="none" id="AMiRoOS-&gt;ch.h" style="stroke: #A80036; stroke-width: 1.0;"/><path d="M544.9376,356.9016 A9,9 0 0 0 529.855 349.2456" fill="none" style="stroke: #A80036; stroke-width: 1.5;"/><!--MD5=[4c2190baba6205213ef7997738e1e8a7]
link AMiRoOS to amiroblt.h--><path d="M874.6241,242.6791 C739.3471,245.0897 391.0676,255.9227 287,304 C266.1694,313.6233 248.0295,333.0592 236.6324,347.4177 " fill="none" id="AMiRoOS-&gt;amiroblt.h" style="stroke: #A80036; stroke-width: 1.0;"/><path d="M239.0407,358.2313 A9,9 0 0 0 225.5693 348.0029" fill="none" style="stroke: #A80036; stroke-width: 1.5;"/><!--MD5=[f73b0d5713cb451aa6d22864a4a45a47]
link AMiRoOS to alldconf.h--><path d="M983.105,245.6183 C1081.516,252.9132 1285.4248,271.5217 1348,304 C1371.6059,316.2521 1390.9622,341.9146 1400.1802,355.727 " fill="none" id="AMiRoOS-alldconf.h" style="stroke: #A80036; stroke-width: 1.0;"/><!--MD5=[0045932bb9a1daada1ffcfba0a756c6b]
link AMiRoOS to alldh--><path d="M983.1781,254.8874 C1018.7242,264.8698 1065.2527,280.9257 1102,304 C1120.8825,315.8566 1138.6088,334.3292 1150.2309,347.8414 " fill="none" id="AMiRoOS-&gt;alldh" style="stroke: #A80036; stroke-width: 1.0;"/><path d="M1161.462,348.105 A9,9 0 0 0 1148.4708 358.9368" fill="none" style="stroke: #A80036; stroke-width: 1.5;"/><!--MD5=[8ee163f33471968dedc6fffea65e7171]
link AMiRoOS to periphAL.h--><path d="M983.2458,249.567 C1056.8513,260.4754 1183.9011,281.7639 1225,304 C1248.974,316.9709 1269.6914,342.3301 1279.6653,355.9072 " fill="none" id="AMiRoOS-periphAL.h" style="stroke: #A80036; stroke-width: 1.0;"/><!--MD5=[06bdcef0c7c0e8f3340e5cdb6cd144a0]
@startuml
skinparam componentStyle uml2

'- - - - - - - - - - - - - - - - - - - - - - - - - - - - - - - - - - - - - - - - - - - - - - - - - - - - - - - - - - - - - - - - - - - - - - - - - - - - - - -
' AMiRo-BLT
'- - - - - - - - - - - - - - - - - - - - - - - - - - - - - - - - - - - - - - - - - - - - - - - - - - - - - - - - - - - - - - - - - - - - - - - - - - - - - - -

!include ../bootloader/AMiRo-BLT/Target/docs/AMiRo-BLT.uml

'- - - - - - - - - - - - - - - - - - - - - - - - - - - - - - - - - - - - - - - - - - - - - - - - - - - - - - - - - - - - - - - - - - - - - - - - - - - - - - -
' ChibiOS
'- - - - - - - - - - - - - - - - - - - - - - - - - - - - - - - - - - - - - - - - - - - - - - - - - - - - - - - - - - - - - - - - - - - - - - - - - - - - - - -

node "ChibiOS" as ChibiOS_node {
	interface hal.h #lightgrey
	interface osal.h #lightgrey
	interface cmsis.h #lightgrey
	interface ch.h #lightgrey
	interface ch.hpp #lightgrey

	interface mcuconf.h #lightgrey
	interface halconf.h #lightgrey
	interface chconf.h #lightgrey

	component "ChibiOS/HAL" as ChibiOS_HAL #lightgrey
	component "ChibiOS/RT" as ChibiOS_RT #lightgrey

	ChibiOS_HAL -up-( mcuconf.h
	ChibiOS_HAL -up-( halconf.h
	ChibiOS_HAL -up- hal.h
	ChibiOS_HAL -up-( osal.h
	ChibiOS_RT -up-( chconf.h
	ChibiOS_RT -up-( hal.h
	ChibiOS_RT -up- osal.h
	ChibiOS_RT -up- cmsis.h
	ChibiOS_RT -up- ch.h
	ChibiOS_RT -up- ch.hpp
}

'- - - - - - - - - - - - - - - - - - - - - - - - - - - - - - - - - - - - - - - - - - - - - - - - - - - - - - - - - - - - - - - - - - - - - - - - - - - - - - -
' AMiRo-LLD
'- - - - - - - - - - - - - - - - - - - - - - - - - - - - - - - - - - - - - - - - - - - - - - - - - - - - - - - - - - - - - - - - - - - - - - - - - - - - - - -

!include ../periphery-lld/AMiRo-LLD/docs/AMiRo-LLD.uml

'- - - - - - - - - - - - - - - - - - - - - - - - - - - - - - - - - - - - - - - - - - - - - - - - - - - - - - - - - - - - - - - - - - - - - - - - - - - - - - -
' AMiRo-OS
'- - - - - - - - - - - - - - - - - - - - - - - - - - - - - - - - - - - - - - - - - - - - - - - - - - - - - - - - - - - - - - - - - - - - - - - - - - - - - - -

node "AMiRo-OS" as AMiRoOS_node {
	interface osconf.h
	interface amiroos.h

	component "AMiRo-OS" as AMiRoOS

	AMiRoOS -up-( osconf.h
	AMiRoOS -up- amiroos.h
}

'- - - - - - - - - - - - - - - - - - - - - - - - - - - - - - - - - - - - - - - - - - - - - - - - - - - - - - - - - - - - - - - - - - - - - - - - - - - - - - -
' dependencies
'- - - - - - - - - - - - - - - - - - - - - - - - - - - - - - - - - - - - - - - - - - - - - - - - - - - - - - - - - - - - - - - - - - - - - - - - - - - - - - -

AMiRoOS - - mcuconf.h
AMiRoOS - - halconf.h
AMiRoOS - - chconf.h
AMiRoOS - -( hal.h
AMiRoOS - -( ch.h
AMiRoOS - -( amiroblt.h
AMiRoOS - - alldconf.h
AMiRoOS - -( alldh
AMiRoOS - - periphAL.h

@enduml

@startuml
skinparam componentStyle uml2


skinparam componentStyle uml2


node "AMiRo-BLT" as AMiRoBLT_node {
	component OpenBLT #lightgrey
	component stm32flash #lightgrey

	interface amiroblt.h

	component "AMiRo-BLT" as AMiRoBLT
	AMiRoBLT -down-|> OpenBLT : forks
	AMiRoBLT .down.> stm32flash : utilizes
	AMiRoBLT -up- amiroblt.h
}



node "ChibiOS" as ChibiOS_node {
	interface hal.h #lightgrey
	interface osal.h #lightgrey
	interface cmsis.h #lightgrey
	interface ch.h #lightgrey
	interface ch.hpp #lightgrey

	interface mcuconf.h #lightgrey
	interface halconf.h #lightgrey
	interface chconf.h #lightgrey

	component "ChibiOS/HAL" as ChibiOS_HAL #lightgrey
	component "ChibiOS/RT" as ChibiOS_RT #lightgrey

	ChibiOS_HAL -up-( mcuconf.h
	ChibiOS_HAL -up-( halconf.h
	ChibiOS_HAL -up- hal.h
	ChibiOS_HAL -up-( osal.h
	ChibiOS_RT -up-( chconf.h
	ChibiOS_RT -up-( hal.h
	ChibiOS_RT -up- osal.h
	ChibiOS_RT -up- cmsis.h
	ChibiOS_RT -up- ch.h
	ChibiOS_RT -up- ch.hpp
}


skinparam componentStyle uml2


node "AMiRo-LLD" as AMiRoLLD_node {
	interface alldconf.h
	interface periphAL.h
	interface "amiro-lld.h" as alldh

	component "AMiRo-LLD" as AMiRoLLD
	AMiRoLLD -up-( alldconf.h
	AMiRoLLD -up-( periphAL.h
	AMiRoLLD -up- alldh
}



node "AMiRo-OS" as AMiRoOS_node {
	interface osconf.h
	interface amiroos.h

	component "AMiRo-OS" as AMiRoOS

	AMiRoOS -up-( osconf.h
	AMiRoOS -up- amiroos.h
}


AMiRoOS - - mcuconf.h
AMiRoOS - - halconf.h
AMiRoOS - - chconf.h
AMiRoOS - -( hal.h
AMiRoOS - -( ch.h
AMiRoOS - -( amiroblt.h
AMiRoOS - - alldconf.h
AMiRoOS - -( alldh
AMiRoOS - - periphAL.h

@enduml

PlantUML version 1.2020.15(Sun Jun 28 13:39:45 CEST 2020)
(GPL source distribution)
Java Runtime: OpenJDK Runtime Environment
JVM: OpenJDK 64-Bit Server VM
Default Encoding: UTF-8
Language: en
Country: US
--></g></svg>