<?xml version="1.0" encoding="UTF-8" standalone="no"?><svg xmlns="http://www.w3.org/2000/svg" xmlns:xlink="http://www.w3.org/1999/xlink" contentScriptType="application/ecmascript" contentStyleType="text/css" height="1099px" preserveAspectRatio="none" style="width:1897px;height:1099px;" version="1.1" viewBox="0 0 1897 1099" width="1897px" zoomAndPan="magnify"><defs><filter height="300%" id="fcgups3wblkl2" width="300%" x="-1" y="-1"><feGaussianBlur result="blurOut" stdDeviation="2.0"/><feColorMatrix in="blurOut" result="blurOut2" type="matrix" values="0 0 0 0 0 0 0 0 0 0 0 0 0 0 0 0 0 0 .4 0"/><feOffset dx="4.0" dy="4.0" in="blurOut2" result="blurOut3"/><feBlend in="SourceGraphic" in2="blurOut3" mode="normal"/></filter></defs><g><!--MD5=[bad0e800654e73e4da8f602f5d7313f6]
cluster AMiRoBLT_node--><polygon fill="#FFFFFF" filter="url(#fcgups3wblkl2)" points="1604,645,1614,635,1875,635,1875,1077,1865,1087,1604,1087,1604,645" style="stroke: #000000; stroke-width: 1.5;"/><line style="stroke: #000000; stroke-width: 1.5;" x1="1865" x2="1874" y1="645" y2="636"/><line style="stroke: #000000; stroke-width: 1.5;" x1="1604" x2="1865" y1="645" y2="645"/><line style="stroke: #000000; stroke-width: 1.5;" x1="1865" x2="1865" y1="645" y2="1087"/><text fill="#000000" font-family="sans-serif" font-size="14" font-weight="bold" lengthAdjust="spacingAndGlyphs" textLength="83" x="1694" y="660.9951">AMiRo-BLT</text><!--MD5=[f1cc9d144546a296b865d8bd496ea637]
cluster ChibiOS_node--><polygon fill="#FFFFFF" filter="url(#fcgups3wblkl2)" points="436,645,446,635,1235,635,1235,892,1225,902,436,902,436,645" style="stroke: #000000; stroke-width: 1.5;"/><line style="stroke: #000000; stroke-width: 1.5;" x1="1225" x2="1234" y1="645" y2="636"/><line style="stroke: #000000; stroke-width: 1.5;" x1="436" x2="1225" y1="645" y2="645"/><line style="stroke: #000000; stroke-width: 1.5;" x1="1225" x2="1225" y1="645" y2="902"/><text fill="#000000" font-family="sans-serif" font-size="14" font-weight="bold" lengthAdjust="spacingAndGlyphs" textLength="61" x="801" y="660.9951">ChibiOS</text><!--MD5=[44bceaf43c82bf0ff4bd766ef7ee5c0b]
cluster AMiRoLLD_node--><polygon fill="#FFFFFF" filter="url(#fcgups3wblkl2)" points="1254,645,1264,635,1596,635,1596,892,1586,902,1254,902,1254,645" style="stroke: #000000; stroke-width: 1.5;"/><line style="stroke: #000000; stroke-width: 1.5;" x1="1586" x2="1595" y1="645" y2="636"/><line style="stroke: #000000; stroke-width: 1.5;" x1="1254" x2="1586" y1="645" y2="645"/><line style="stroke: #000000; stroke-width: 1.5;" x1="1586" x2="1586" y1="645" y2="902"/><text fill="#000000" font-family="sans-serif" font-size="14" font-weight="bold" lengthAdjust="spacingAndGlyphs" textLength="83" x="1379.5" y="660.9951">AMiRo-LLD</text><!--MD5=[93a15f3f07216d1460831727d04db797]
cluster AMiRoOS_node--><polygon fill="#FFFFFF" filter="url(#fcgups3wblkl2)" points="980,302,990,292,1191,292,1191,594,1181,604,980,604,980,302" style="stroke: #000000; stroke-width: 1.5;"/><line style="stroke: #000000; stroke-width: 1.5;" x1="1181" x2="1190" y1="302" y2="293"/><line style="stroke: #000000; stroke-width: 1.5;" x1="980" x2="1181" y1="302" y2="302"/><line style="stroke: #000000; stroke-width: 1.5;" x1="1181" x2="1181" y1="302" y2="604"/><text fill="#000000" font-family="sans-serif" font-size="14" font-weight="bold" lengthAdjust="spacingAndGlyphs" textLength="76" x="1043.5" y="317.9951">AMiRo-OS</text><!--MD5=[26f301f7b07daa3ee86b7ddda7fca201]
cluster µRT_node--><polygon fill="#FFFFFF" filter="url(#fcgups3wblkl2)" points="16,645,26,635,417,635,417,892,407,902,16,902,16,645" style="stroke: #000000; stroke-width: 1.5;"/><line style="stroke: #000000; stroke-width: 1.5;" x1="407" x2="416" y1="645" y2="636"/><line style="stroke: #000000; stroke-width: 1.5;" x1="16" x2="407" y1="645" y2="645"/><line style="stroke: #000000; stroke-width: 1.5;" x1="407" x2="407" y1="645" y2="902"/><text fill="#000000" font-family="sans-serif" font-size="14" font-weight="bold" lengthAdjust="spacingAndGlyphs" textLength="30" x="197.5" y="660.9951">µRT</text><!--MD5=[6245cf45de7a575c83857ea7bf74724f]
cluster AMiRoApps_node--><polygon fill="#FFFFFF" filter="url(#fcgups3wblkl2)" points="522,16,532,6,692,6,692,487,682,497,522,497,522,16" style="stroke: #000000; stroke-width: 1.5;"/><line style="stroke: #000000; stroke-width: 1.5;" x1="682" x2="691" y1="16" y2="7"/><line style="stroke: #000000; stroke-width: 1.5;" x1="522" x2="682" y1="16" y2="16"/><line style="stroke: #000000; stroke-width: 1.5;" x1="682" x2="682" y1="16" y2="497"/><text fill="#000000" font-family="sans-serif" font-size="14" font-weight="bold" lengthAdjust="spacingAndGlyphs" textLength="94" x="556" y="31.9951">AMiRo-Apps</text><!--MD5=[1850e5a2fe35a38ef3e3a0bb4dbac5ab]
entity OpenBLT--><rect fill="#D3D3D3" filter="url(#fcgups3wblkl2)" height="46.2969" style="stroke: #A80036; stroke-width: 1.5;" width="104" x="1612" y="1033"/><rect fill="#D3D3D3" height="10" style="stroke: #A80036; stroke-width: 1.5;" width="15" x="1696" y="1038"/><rect fill="#D3D3D3" height="2" style="stroke: #A80036; stroke-width: 1.5;" width="4" x="1694" y="1040"/><rect fill="#D3D3D3" height="2" style="stroke: #A80036; stroke-width: 1.5;" width="4" x="1694" y="1044"/><text fill="#000000" font-family="sans-serif" font-size="14" lengthAdjust="spacingAndGlyphs" textLength="64" x="1627" y="1065.9951">OpenBLT</text><!--MD5=[a96c19cb2b38efd916c00305869501e0]
entity stm32flash--><rect fill="#D3D3D3" filter="url(#fcgups3wblkl2)" height="46.2969" style="stroke: #A80036; stroke-width: 1.5;" width="116" x="1751" y="1033"/><rect fill="#D3D3D3" height="10" style="stroke: #A80036; stroke-width: 1.5;" width="15" x="1847" y="1038"/><rect fill="#D3D3D3" height="2" style="stroke: #A80036; stroke-width: 1.5;" width="4" x="1845" y="1040"/><rect fill="#D3D3D3" height="2" style="stroke: #A80036; stroke-width: 1.5;" width="4" x="1845" y="1044"/><text fill="#000000" font-family="sans-serif" font-size="14" lengthAdjust="spacingAndGlyphs" textLength="76" x="1766" y="1065.9951">stm32flash</text><!--MD5=[abe44379f03537c20fb177b2ff2e4bb1]
entity amiroblt.h--><ellipse cx="1667" cy="696" fill="#FEFECE" filter="url(#fcgups3wblkl2)" rx="8" ry="8" style="stroke: #A80036; stroke-width: 2.0;"/><text fill="#000000" font-family="sans-serif" font-size="14" lengthAdjust="spacingAndGlyphs" textLength="68" x="1633" y="725.9951">amiroblt.h</text><!--MD5=[9ef024a41f1673202c3a028e831e400a]
entity AMiRoBLT--><rect fill="#FEFECE" filter="url(#fcgups3wblkl2)" height="46.2969" style="stroke: #A80036; stroke-width: 1.5;" width="114" x="1612" y="848"/><rect fill="#FEFECE" height="10" style="stroke: #A80036; stroke-width: 1.5;" width="15" x="1706" y="853"/><rect fill="#FEFECE" height="2" style="stroke: #A80036; stroke-width: 1.5;" width="4" x="1704" y="855"/><rect fill="#FEFECE" height="2" style="stroke: #A80036; stroke-width: 1.5;" width="4" x="1704" y="859"/><text fill="#000000" font-family="sans-serif" font-size="14" lengthAdjust="spacingAndGlyphs" textLength="74" x="1627" y="880.9951">AMiRo-BLT</text><!--MD5=[c2c1884905b4ceff46101fa0c0e1262d]
entity hal.h--><ellipse cx="964" cy="696" fill="#D3D3D3" filter="url(#fcgups3wblkl2)" rx="8" ry="8" style="stroke: #A80036; stroke-width: 2.0;"/><text fill="#000000" font-family="sans-serif" font-size="14" lengthAdjust="spacingAndGlyphs" textLength="33" x="947.5" y="725.9951">hal.h</text><!--MD5=[54da4254ff3b9427c3f2dc4cdd81f0ba]
entity osal.h--><ellipse cx="763" cy="696" fill="#D3D3D3" filter="url(#fcgups3wblkl2)" rx="8" ry="8" style="stroke: #A80036; stroke-width: 2.0;"/><text fill="#000000" font-family="sans-serif" font-size="14" lengthAdjust="spacingAndGlyphs" textLength="41" x="742.5" y="725.9951">osal.h</text><!--MD5=[acdc3e181996970aa61f56b63b5641aa]
entity cmsis.h--><ellipse cx="577" cy="696" fill="#D3D3D3" filter="url(#fcgups3wblkl2)" rx="8" ry="8" style="stroke: #A80036; stroke-width: 2.0;"/><text fill="#000000" font-family="sans-serif" font-size="14" lengthAdjust="spacingAndGlyphs" textLength="53" x="550.5" y="725.9951">cmsis.h</text><!--MD5=[4fbafc4a7743d695410972d91bd051b1]
entity ch.h--><ellipse cx="673" cy="696" fill="#D3D3D3" filter="url(#fcgups3wblkl2)" rx="8" ry="8" style="stroke: #A80036; stroke-width: 2.0;"/><text fill="#000000" font-family="sans-serif" font-size="14" lengthAdjust="spacingAndGlyphs" textLength="30" x="658" y="725.9951">ch.h</text><!--MD5=[fa0ee5c5d63269a056b84209237c8646]
entity ch.hpp--><ellipse cx="476" cy="696" fill="#D3D3D3" filter="url(#fcgups3wblkl2)" rx="8" ry="8" style="stroke: #A80036; stroke-width: 2.0;"/><text fill="#000000" font-family="sans-serif" font-size="14" lengthAdjust="spacingAndGlyphs" textLength="48" x="452" y="725.9951">ch.hpp</text><!--MD5=[2f420ce408907b6bb6bc71361939dce0]
entity mcuconf.h--><ellipse cx="1070" cy="696" fill="#D3D3D3" filter="url(#fcgups3wblkl2)" rx="8" ry="8" style="stroke: #A80036; stroke-width: 2.0;"/><text fill="#000000" font-family="sans-serif" font-size="14" lengthAdjust="spacingAndGlyphs" textLength="73" x="1033.5" y="725.9951">mcuconf.h</text><!--MD5=[b4b3dff1705adeb17fdb68fd37da65d6]
entity halconf.h--><ellipse cx="1188" cy="696" fill="#D3D3D3" filter="url(#fcgups3wblkl2)" rx="8" ry="8" style="stroke: #A80036; stroke-width: 2.0;"/><text fill="#000000" font-family="sans-serif" font-size="14" lengthAdjust="spacingAndGlyphs" textLength="63" x="1156.5" y="725.9951">halconf.h</text><!--MD5=[c537732882b43d9844ff358fbe7f472c]
entity chconf.h--><ellipse cx="864" cy="696" fill="#D3D3D3" filter="url(#fcgups3wblkl2)" rx="8" ry="8" style="stroke: #A80036; stroke-width: 2.0;"/><text fill="#000000" font-family="sans-serif" font-size="14" lengthAdjust="spacingAndGlyphs" textLength="60" x="834" y="725.9951">chconf.h</text><!--MD5=[363d0e730d350c3e8d167d17d5855e75]
entity ChibiOS_HAL--><rect fill="#D3D3D3" filter="url(#fcgups3wblkl2)" height="46.2969" style="stroke: #A80036; stroke-width: 1.5;" width="125" x="954.5" y="848"/><rect fill="#D3D3D3" height="10" style="stroke: #A80036; stroke-width: 1.5;" width="15" x="1059.5" y="853"/><rect fill="#D3D3D3" height="2" style="stroke: #A80036; stroke-width: 1.5;" width="4" x="1057.5" y="855"/><rect fill="#D3D3D3" height="2" style="stroke: #A80036; stroke-width: 1.5;" width="4" x="1057.5" y="859"/><text fill="#000000" font-family="sans-serif" font-size="14" lengthAdjust="spacingAndGlyphs" textLength="85" x="969.5" y="880.9951">ChibiOS/HAL</text><!--MD5=[7c71aae14aff1d4c22090396dceb73f1]
entity ChibiOS_RT--><rect fill="#D3D3D3" filter="url(#fcgups3wblkl2)" height="46.2969" style="stroke: #A80036; stroke-width: 1.5;" width="118" x="659" y="848"/><rect fill="#D3D3D3" height="10" style="stroke: #A80036; stroke-width: 1.5;" width="15" x="757" y="853"/><rect fill="#D3D3D3" height="2" style="stroke: #A80036; stroke-width: 1.5;" width="4" x="755" y="855"/><rect fill="#D3D3D3" height="2" style="stroke: #A80036; stroke-width: 1.5;" width="4" x="755" y="859"/><text fill="#000000" font-family="sans-serif" font-size="14" lengthAdjust="spacingAndGlyphs" textLength="78" x="674" y="880.9951">ChibiOS/RT</text><!--MD5=[8918e0edf34d79d0001ffbab13d060b4]
entity alldconf.h--><ellipse cx="1547" cy="696" fill="#FEFECE" filter="url(#fcgups3wblkl2)" rx="8" ry="8" style="stroke: #A80036; stroke-width: 2.0;"/><text fill="#000000" font-family="sans-serif" font-size="14" lengthAdjust="spacingAndGlyphs" textLength="66" x="1514" y="725.9951">alldconf.h</text><!--MD5=[f22507d6019a948c9f1e753a204c1882]
entity periphAL.h--><ellipse cx="1306" cy="696" fill="#FEFECE" filter="url(#fcgups3wblkl2)" rx="8" ry="8" style="stroke: #A80036; stroke-width: 2.0;"/><text fill="#000000" font-family="sans-serif" font-size="14" lengthAdjust="spacingAndGlyphs" textLength="73" x="1269.5" y="725.9951">periphAL.h</text><!--MD5=[a8b2669114d9706e97bce84027334bac]
entity alldh--><ellipse cx="1428" cy="696" fill="#FEFECE" filter="url(#fcgups3wblkl2)" rx="8" ry="8" style="stroke: #A80036; stroke-width: 2.0;"/><text fill="#000000" font-family="sans-serif" font-size="14" lengthAdjust="spacingAndGlyphs" textLength="71" x="1392.5" y="725.9951">amiro-lld.h</text><!--MD5=[a6d17afc91ea770039ad6b152e003e63]
entity AMiRoLLD--><rect fill="#FEFECE" filter="url(#fcgups3wblkl2)" height="46.2969" style="stroke: #A80036; stroke-width: 1.5;" width="113" x="1371.5" y="848"/><rect fill="#FEFECE" height="10" style="stroke: #A80036; stroke-width: 1.5;" width="15" x="1464.5" y="853"/><rect fill="#FEFECE" height="2" style="stroke: #A80036; stroke-width: 1.5;" width="4" x="1462.5" y="855"/><rect fill="#FEFECE" height="2" style="stroke: #A80036; stroke-width: 1.5;" width="4" x="1462.5" y="859"/><text fill="#000000" font-family="sans-serif" font-size="14" lengthAdjust="spacingAndGlyphs" textLength="73" x="1386.5" y="880.9951">AMiRo-LLD</text><!--MD5=[5308482273029909589583f5ed180a1b]
entity osconf.h--><ellipse cx="1145" cy="353" fill="#FEFECE" filter="url(#fcgups3wblkl2)" rx="8" ry="8" style="stroke: #A80036; stroke-width: 2.0;"/><text fill="#000000" font-family="sans-serif" font-size="14" lengthAdjust="spacingAndGlyphs" textLength="60" x="1115" y="382.9951">osconf.h</text><!--MD5=[7632218e63c6e8d767e4e0b35b917b55]
entity amiroos.h--><ellipse cx="1030" cy="353" fill="#FEFECE" filter="url(#fcgups3wblkl2)" rx="8" ry="8" style="stroke: #A80036; stroke-width: 2.0;"/><text fill="#000000" font-family="sans-serif" font-size="14" lengthAdjust="spacingAndGlyphs" textLength="68" x="996" y="382.9951">amiroos.h</text><!--MD5=[39bec0b3a3c36eca377cc878ed94d2cd]
entity AMiRoOS--><rect fill="#FEFECE" filter="url(#fcgups3wblkl2)" height="46.2969" style="stroke: #A80036; stroke-width: 1.5;" width="108" x="1020" y="550"/><rect fill="#FEFECE" height="10" style="stroke: #A80036; stroke-width: 1.5;" width="15" x="1108" y="555"/><rect fill="#FEFECE" height="2" style="stroke: #A80036; stroke-width: 1.5;" width="4" x="1106" y="557"/><rect fill="#FEFECE" height="2" style="stroke: #A80036; stroke-width: 1.5;" width="4" x="1106" y="561"/><text fill="#000000" font-family="sans-serif" font-size="14" lengthAdjust="spacingAndGlyphs" textLength="68" x="1035" y="582.9951">AMiRo-OS</text><!--MD5=[4746b34bae2b9a834a3402ef90db12c1]
entity urt.h--><ellipse cx="265" cy="696" fill="#FEFECE" filter="url(#fcgups3wblkl2)" rx="8" ry="8" style="stroke: #A80036; stroke-width: 2.0;"/><text fill="#000000" font-family="sans-serif" font-size="14" lengthAdjust="spacingAndGlyphs" textLength="32" x="249" y="725.9951">urt.h</text><!--MD5=[48484388274937268379d4d6821715d4]
entity urt.hpp--><ellipse cx="170" cy="696" fill="#FEFECE" filter="url(#fcgups3wblkl2)" rx="8" ry="8" style="stroke: #A80036; stroke-width: 2.0;"/><text fill="#000000" font-family="sans-serif" font-size="14" lengthAdjust="spacingAndGlyphs" textLength="50" x="145" y="725.9951">urt.hpp</text><!--MD5=[77f30e72a7440615738705ff83f9db1a]
entity urtconf.h--><ellipse cx="63" cy="696" fill="#FEFECE" filter="url(#fcgups3wblkl2)" rx="8" ry="8" style="stroke: #A80036; stroke-width: 2.0;"/><text fill="#000000" font-family="sans-serif" font-size="14" lengthAdjust="spacingAndGlyphs" textLength="62" x="32" y="725.9951">urtconf.h</text><!--MD5=[d0dd69a14be837f7f3c90f75114d3962]
entity urt_osal.h--><ellipse cx="368" cy="696" fill="#FEFECE" filter="url(#fcgups3wblkl2)" rx="8" ry="8" style="stroke: #A80036; stroke-width: 2.0;"/><text fill="#000000" font-family="sans-serif" font-size="14" lengthAdjust="spacingAndGlyphs" textLength="67" x="334.5" y="725.9951">urt_osal.h</text><!--MD5=[8c75ad807af11dbb7e25ce521f905900]
entity µRT--><rect fill="#FEFECE" filter="url(#fcgups3wblkl2)" height="46.2969" style="stroke: #A80036; stroke-width: 1.5;" width="68" x="183" y="848"/><rect fill="#FEFECE" height="10" style="stroke: #A80036; stroke-width: 1.5;" width="15" x="231" y="853"/><rect fill="#FEFECE" height="2" style="stroke: #A80036; stroke-width: 1.5;" width="4" x="229" y="855"/><rect fill="#FEFECE" height="2" style="stroke: #A80036; stroke-width: 1.5;" width="4" x="229" y="859"/><text fill="#000000" font-family="sans-serif" font-size="14" lengthAdjust="spacingAndGlyphs" textLength="28" x="198" y="880.9951">µRT</text><!--MD5=[f446585b29ba0f49d752f41a5bb9089c]
entity AMiRoApps_MessageTypes--><rect fill="#FEFECE" filter="url(#fcgups3wblkl2)" height="46.2969" style="stroke: #A80036; stroke-width: 1.5;" width="149" x="532.5" y="443"/><rect fill="#FEFECE" height="10" style="stroke: #A80036; stroke-width: 1.5;" width="15" x="661.5" y="448"/><rect fill="#FEFECE" height="2" style="stroke: #A80036; stroke-width: 1.5;" width="4" x="659.5" y="450"/><rect fill="#FEFECE" height="2" style="stroke: #A80036; stroke-width: 1.5;" width="4" x="659.5" y="454"/><text fill="#000000" font-family="sans-serif" font-size="14" lengthAdjust="spacingAndGlyphs" textLength="109" x="547.5" y="475.9951">Message Types</text><!--MD5=[96fe9df8cf29a9e9519002ab633ef565]
entity AMiRoApps_Apps--><rect fill="#FEFECE" filter="url(#fcgups3wblkl2)" height="46.2969" style="stroke: #A80036; stroke-width: 1.5;" width="75" x="569.5" y="207"/><rect fill="#FEFECE" height="10" style="stroke: #A80036; stroke-width: 1.5;" width="15" x="624.5" y="212"/><rect fill="#FEFECE" height="2" style="stroke: #A80036; stroke-width: 1.5;" width="4" x="622.5" y="214"/><rect fill="#FEFECE" height="2" style="stroke: #A80036; stroke-width: 1.5;" width="4" x="622.5" y="218"/><text fill="#000000" font-family="sans-serif" font-size="14" lengthAdjust="spacingAndGlyphs" textLength="35" x="584.5" y="239.9951">Apps</text><!--MD5=[30a24191818b929c6e5ef76ca40a950f]
entity AMiRoApps_Configurations--><rect fill="#FEFECE" filter="url(#fcgups3wblkl2)" height="46.2969" style="stroke: #A80036; stroke-width: 1.5;" width="140" x="537" y="38"/><rect fill="#FEFECE" height="10" style="stroke: #A80036; stroke-width: 1.5;" width="15" x="657" y="43"/><rect fill="#FEFECE" height="2" style="stroke: #A80036; stroke-width: 1.5;" width="4" x="655" y="45"/><rect fill="#FEFECE" height="2" style="stroke: #A80036; stroke-width: 1.5;" width="4" x="655" y="49"/><text fill="#000000" font-family="sans-serif" font-size="14" lengthAdjust="spacingAndGlyphs" textLength="100" x="552" y="70.9951">Configurations</text><!--MD5=[53f97ef04872e372168f439f9b9923ba]
link AMiRoBLT to OpenBLT--><path d="M1668.3769,894.0563 C1667.5756,923.7026 1666.1682,975.7764 1665.1657,1012.8691 " fill="none" id="AMiRoBLT-&gt;OpenBLT" style="stroke: #A80036; stroke-width: 1.0;"/><polygon fill="none" points="1672.161,1013.1409,1664.6231,1032.9444,1658.1661,1012.7626,1672.161,1013.1409" style="stroke: #A80036; stroke-width: 1.0;"/><text fill="#000000" font-family="sans-serif" font-size="13" lengthAdjust="spacingAndGlyphs" textLength="31" x="1667" y="968.0669">forks</text><!--MD5=[bb95fd8ada897b34729165f896554ef8]
link AMiRoBLT to stm32flash--><path d="M1686.448,894.0563 C1712.2982,928.2155 1760.6811,992.15 1788.2913,1028.6349 " fill="none" id="AMiRoBLT-&gt;stm32flash" style="stroke: #A80036; stroke-width: 1.0; stroke-dasharray: 7.0,7.0;"/><polygon fill="#A80036" points="1791.5525,1032.9444,1789.311,1023.354,1788.5352,1028.9574,1782.9318,1028.1816,1791.5525,1032.9444" style="stroke: #A80036; stroke-width: 1.0;"/><text fill="#000000" font-family="sans-serif" font-size="13" lengthAdjust="spacingAndGlyphs" textLength="44" x="1744" y="968.0669">utilizes</text><!--MD5=[59781e7a01f498f34f1c659f0f2f5162]
link amiroblt.h to AMiRoBLT--><path d="M1667.1075,705.4088 C1667.4126,732.1028 1668.2902,808.8944 1668.7349,847.8065 " fill="none" id="amiroblt.h-AMiRoBLT" style="stroke: #A80036; stroke-width: 1.0;"/><!--MD5=[5d6d0a3d6cf3baab848b2f34dc57ad54]
reverse link mcuconf.h to ChibiOS_HAL--><path d="M1064.2457,715.0002 C1054.4603,747.3104 1034.6122,812.8464 1024.0243,847.8065 " fill="none" id="mcuconf.h&lt;-ChibiOS_HAL" style="stroke: #A80036; stroke-width: 1.0;"/><path d="M1058.1641,705.9033 A9,9 0 0 0 1074.3524 710.8063" fill="none" style="stroke: #A80036; stroke-width: 1.5;"/><!--MD5=[47d273e38ecd8774355d850e440ffea7]
reverse link halconf.h to ChibiOS_HAL--><path d="M1171.4465,712.9408 C1140.6608,744.4465 1074.567,812.0864 1039.6633,847.8065 " fill="none" id="halconf.h&lt;-ChibiOS_HAL" style="stroke: #A80036; stroke-width: 1.0;"/><path d="M1170.6061,701.6998 A9,9 0 0 0 1182.7039 713.5211" fill="none" style="stroke: #A80036; stroke-width: 1.5;"/><!--MD5=[65127828af5c24c2b05342b71a65cad6]
link hal.h to ChibiOS_HAL--><path d="M966.8495,705.4088 C974.934,732.1028 998.1909,808.8944 1009.9757,847.8065 " fill="none" id="hal.h-ChibiOS_HAL" style="stroke: #A80036; stroke-width: 1.0;"/><!--MD5=[1b1c9716fa18e55b049064bacd3df54d]
reverse link osal.h to ChibiOS_HAL--><path d="M780.3353,707.9436 C822.0145,736.6596 928.4354,809.9811 983.2462,847.7444 " fill="none" id="osal.h&lt;-ChibiOS_HAL" style="stroke: #A80036; stroke-width: 1.0;"/><path d="M769.7765,710.939 A9,9 0 0 0 779.3731 697.0104" fill="none" style="stroke: #A80036; stroke-width: 1.5;"/><!--MD5=[d9a145d0c7e0a361daeda2794cedd173]
reverse link chconf.h to ChibiOS_RT--><path d="M849.5294,713.3449 C823.102,745.0216 767.0239,812.2384 737.35,847.8065 " fill="none" id="chconf.h&lt;-ChibiOS_RT" style="stroke: #A80036; stroke-width: 1.0;"/><path d="M847.6845,702.3545 A9,9 0 0 0 860.6724 713.1903" fill="none" style="stroke: #A80036; stroke-width: 1.5;"/><!--MD5=[6a0db9cffa24979d973eab3e6bb1e4a5]
reverse link hal.h to ChibiOS_RT--><path d="M946.802,709.6684 C931.1343,722.0148 907.2648,740.5612 886,756 C840.6655,788.9139 787.0676,825.1547 752.817,847.9857 " fill="none" id="hal.h&lt;-ChibiOS_RT" style="stroke: #A80036; stroke-width: 1.0;"/><path d="M947.3365,698.4625 A9,9 0 0 0 957.8298 711.7286" fill="none" style="stroke: #A80036; stroke-width: 1.5;"/><!--MD5=[18d14a9b31cc3a3e0f4b4f61a2be0712]
link osal.h to ChibiOS_RT--><path d="M760.5806,705.4088 C753.7164,732.1028 733.97,808.8944 723.964,847.8065 " fill="none" id="osal.h-ChibiOS_RT" style="stroke: #A80036; stroke-width: 1.0;"/><!--MD5=[0845dcb8464cc3bf10353e9e15722584]
link cmsis.h to ChibiOS_RT--><path d="M584.5808,705.4088 C606.0885,732.1028 667.9606,808.8944 699.3127,847.8065 " fill="none" id="cmsis.h-ChibiOS_RT" style="stroke: #A80036; stroke-width: 1.0;"/><!--MD5=[04d35fdcba9a99f27989be596642a519]
link ch.h to ChibiOS_RT--><path d="M675.4194,705.4088 C682.2836,732.1028 702.03,808.8944 712.036,847.8065 " fill="none" id="ch.h-ChibiOS_RT" style="stroke: #A80036; stroke-width: 1.0;"/><!--MD5=[c64e875a8a363af41ce3d56991addd33]
link ch.hpp to ChibiOS_RT--><path d="M485.1912,702.6465 C517.999,726.3712 630.3486,807.6158 686.0983,847.9306 " fill="none" id="ch.hpp-ChibiOS_RT" style="stroke: #A80036; stroke-width: 1.0;"/><!--MD5=[85f16092ae798ad62fe91ca545ad6048]
reverse link alldconf.h to AMiRoLLD--><path d="M1534.928,713.753 C1513.2751,745.5955 1467.8545,812.3904 1443.7716,847.8065 " fill="none" id="alldconf.h&lt;-AMiRoLLD" style="stroke: #A80036; stroke-width: 1.0;"/><path d="M1531.8776,703.1986 A9,9 0 0 0 1545.8645 712.7099" fill="none" style="stroke: #A80036; stroke-width: 1.5;"/><!--MD5=[e5739afad639e5bc446a1d4be0511d1d]
reverse link periphAL.h to AMiRoLLD--><path d="M1318.3764,713.753 C1340.5752,745.5955 1387.1408,812.3904 1411.8308,847.8065 " fill="none" id="periphAL.h&lt;-AMiRoLLD" style="stroke: #A80036; stroke-width: 1.0;"/><path d="M1307.3818,712.7705 A9,9 0 0 0 1321.2573 703.0973" fill="none" style="stroke: #A80036; stroke-width: 1.5;"/><!--MD5=[adab66a821e6a4398482e8344e16bc74]
link alldh to AMiRoLLD--><path d="M1428,705.4088 C1428,732.1028 1428,808.8944 1428,847.8065 " fill="none" id="alldh-AMiRoLLD" style="stroke: #A80036; stroke-width: 1.0;"/><!--MD5=[e0d071a9c55cb0a37548507a0ec15a0b]
reverse link osconf.h to AMiRoOS--><path d="M1138.9443,371.764 C1126.0036,411.862 1095.6839,505.8104 1081.5284,549.6725 " fill="none" id="osconf.h&lt;-AMiRoOS" style="stroke: #A80036; stroke-width: 1.0;"/><path d="M1133.0457,362.5048 A9,9 0 0 0 1149.1426 367.7" fill="none" style="stroke: #A80036; stroke-width: 1.5;"/><!--MD5=[4c3cccfc37c790f2374a1dcab72931e2]
link amiroos.h to AMiRoOS--><path d="M1031.8346,362.173 C1038.2428,394.2138 1059.7578,501.789 1069.3345,549.6725 " fill="none" id="amiroos.h-AMiRoOS" style="stroke: #A80036; stroke-width: 1.0;"/><!--MD5=[eb1de92b7306a1498025501c016982f6]
link AMiRoOS to mcuconf.h--><path d="M1073.2476,596.1354 C1072.356,623.5538 1070.9135,667.9112 1070.2959,686.9009 " fill="none" id="AMiRoOS-mcuconf.h" style="stroke: #A80036; stroke-width: 1.0;"/><!--MD5=[01bd928d304a34cf4da62b23ee0f5024]
link AMiRoOS to halconf.h--><path d="M1088.5754,596.2185 C1095.8892,606.5642 1105.4374,618.3408 1116,627 C1122.1484,632.0405 1125.651,630.2146 1132,635 C1152.4352,650.4024 1171.5264,673.8769 1181.2631,686.7517 " fill="none" id="AMiRoOS-halconf.h" style="stroke: #A80036; stroke-width: 1.0;"/><!--MD5=[efef991c0b8ecf0be966f4a469b5fda9]
link AMiRoOS to chconf.h--><path d="M1019.7508,588.2534 C988.8345,598.5046 950.3345,614.0046 920,635 C898.7222,649.727 879.6808,673.9016 870.2502,686.9574 " fill="none" id="AMiRoOS-chconf.h" style="stroke: #A80036; stroke-width: 1.0;"/><!--MD5=[a8dfa293c4537392721934751fb4cdee]
link AMiRoOS to hal.h--><path d="M1047.6735,596.1688 C1035.4269,607.4247 1020.9597,621.4271 1009,635 C996.7978,648.8481 984.4592,665.8314 975.7961,678.3583 " fill="none" id="AMiRoOS-&gt;hal.h" style="stroke: #A80036; stroke-width: 1.0;"/><path d="M978.674,689.1586 A9,9 0 0 0 964.6926 679.6392" fill="none" style="stroke: #A80036; stroke-width: 1.5;"/><!--MD5=[4b4ce5bea6747bce8336b12ee2355926]
link AMiRoOS to ch.h--><path d="M1019.8533,585.0816 C964.1989,597.1394 874.9141,615.4852 797,627 C779.5443,629.5798 733.3299,626.262 718,635 C701.2557,644.5442 688.9421,663.1323 681.4698,677.2929 " fill="none" id="AMiRoOS-&gt;ch.h" style="stroke: #A80036; stroke-width: 1.0;"/><path d="M685.8389,687.5898 A9,9 0 0 0 670.653 680.1408" fill="none" style="stroke: #A80036; stroke-width: 1.5;"/><!--MD5=[4c2190baba6205213ef7997738e1e8a7]
link AMiRoOS to amiroblt.h--><path d="M1128.2943,574.9588 C1245.9634,579.9065 1520.6097,595.4496 1604,635 C1624.7324,644.833 1642.8897,664.2316 1654.3178,678.5241 " fill="none" id="AMiRoOS-&gt;amiroblt.h" style="stroke: #A80036; stroke-width: 1.0;"/><path d="M1665.3699,679.0465 A9,9 0 0 0 1651.9406 689.33" fill="none" style="stroke: #A80036; stroke-width: 1.5;"/><!--MD5=[f73b0d5713cb451aa6d22864a4a45a47]
link AMiRoOS to alldconf.h--><path d="M1128.0023,594.9867 C1159.7531,606.8156 1201.0031,620.3156 1239,627 C1266.3717,631.8152 1463.6381,623.6346 1489,635 C1513.5373,645.9958 1532.7651,672.6979 1541.6398,686.848 " fill="none" id="AMiRoOS-alldconf.h" style="stroke: #A80036; stroke-width: 1.0;"/><!--MD5=[0045932bb9a1daada1ffcfba0a756c6b]
link AMiRoOS to alldh--><path d="M1116.571,596.1359 C1139.9062,607.6221 1169.7577,620.4209 1198,627 C1234.8334,635.5804 1333.4727,619.5668 1368,635 C1388.6644,644.2367 1405.9861,664.0889 1416.6234,678.6472 " fill="none" id="AMiRoOS-&gt;alldh" style="stroke: #A80036; stroke-width: 1.0;"/><path d="M1427.5385,679.5295 A9,9 0 0 0 1413.6522 689.1871" fill="none" style="stroke: #A80036; stroke-width: 1.5;"/><!--MD5=[8ee163f33471968dedc6fffea65e7171]
link AMiRoOS to periphAL.h--><path d="M1102.1339,596.233 C1117.4125,607.5221 1137.1913,620.1091 1157,627 C1193.2561,639.6125 1208.1235,618.9621 1243,635 C1268.1743,646.5764 1289.3961,672.5239 1299.5615,686.5576 " fill="none" id="AMiRoOS-periphAL.h" style="stroke: #A80036; stroke-width: 1.0;"/><!--MD5=[46b0cea6ef408687237213361d7a298a]
reverse link urt_osal.h to µRT--><path d="M353.0338,713.3449 C325.7014,745.0216 267.7028,812.2384 237.0127,847.8065 " fill="none" id="urt_osal.h&lt;-µRT" style="stroke: #A80036; stroke-width: 1.0;"/><path d="M351.4676,702.2144 A9,9 0 0 0 364.2738 713.2643" fill="none" style="stroke: #A80036; stroke-width: 1.5;"/><!--MD5=[6cd46bd669cb94b3ad40105dc8cc7da3]
reverse link urtconf.h to µRT--><path d="M77.9079,712.9408 C105.6329,744.4465 165.156,812.0864 196.5897,847.8065 " fill="none" id="urtconf.h&lt;-µRT" style="stroke: #A80036; stroke-width: 1.0;"/><path d="M66.9643,713.3067 A9,9 0 0 0 79.6622 702.1325" fill="none" style="stroke: #A80036; stroke-width: 1.5;"/><!--MD5=[9bd553a4e1272b5ac69900989296fd6d]
link urt.h to µRT--><path d="M262.4193,705.4088 C255.0975,732.1028 234.0347,808.8944 223.3616,847.8065 " fill="none" id="urt.h-µRT" style="stroke: #A80036; stroke-width: 1.0;"/><!--MD5=[6ed5dec9e90d1f6560981e4744293d92]
link urt.hpp to µRT--><path d="M172.5269,705.4088 C179.6962,732.1028 200.3202,808.8944 210.7709,847.8065 " fill="none" id="urt.hpp-µRT" style="stroke: #A80036; stroke-width: 1.0;"/><!--MD5=[d850fbdeccffbbbd5877d9d4a2aa07fd]
link AMiRoOS to urt_osal.h--><path d="M1019.962,576.0636 C874.2946,584.6195 480.8899,609.7979 428,635 C403.5937,646.6296 383.5642,672.5547 374.0239,686.571 " fill="none" id="AMiRoOS-urt_osal.h" style="stroke: #A80036; stroke-width: 1.0;"/><!--MD5=[d8fbc9dcd4965029c1836cdc211f7eba]
link AMiRoApps_Apps to AMiRoApps_MessageTypes--><path d="M607,253.0584 C607,296.5018 607,390.3469 607,437.5981 " fill="none" id="AMiRoApps_Apps-&gt;AMiRoApps_MessageTypes" style="stroke: #A80036; stroke-width: 1.0; stroke-dasharray: 7.0,7.0;"/><polygon fill="#A80036" points="607,442.848,611,433.848,607,437.848,603,433.848,607,442.848" style="stroke: #A80036; stroke-width: 1.0;"/><!--MD5=[9d6f401a2e6531902ddb3ab1ea5276b4]
link AMiRoApps_Apps to amiroos.h--><path d="M644.8028,233.9632 C699.2017,240.3825 802.2293,255.2299 886,283 C933.4946,298.7445 985.3929,326.9563 1012.0205,342.3186 " fill="none" id="AMiRoApps_Apps-&gt;amiroos.h" style="stroke: #A80036; stroke-width: 1.0; stroke-dasharray: 7.0,7.0;"/><path d="M1022.537,338.6697 A9,9 0 0 0 1014.0012 353.2725" fill="none" style="stroke: #A80036; stroke-width: 1.5;"/><!--MD5=[4f8ed258b523d1c356591dd48a70f43b]
link AMiRoApps_Apps to urt.h--><path d="M569.3849,237.6779 C490.918,254.7767 317,298.7899 317,353 C317,353 317,353 317,573 C317,613.3457 292.9708,655.6773 277.5815,678.6512 " fill="none" id="AMiRoApps_Apps-&gt;urt.h" style="stroke: #A80036; stroke-width: 1.0; stroke-dasharray: 7.0,7.0;"/><path d="M280.5016,689.2797 A9,9 0 0 0 266.6034 679.6393" fill="none" style="stroke: #A80036; stroke-width: 1.5;"/><!--MD5=[f6e63c6443ae15364fe09be5cfa211e7]
link AMiRoApps_Apps to urt.hpp--><path d="M569.3269,233.9898 C472.9541,245.2353 225,281.1501 225,353 C225,353 225,353 225,573 C225,613.5016 199.8406,655.4826 183.5547,678.4146 " fill="none" id="AMiRoApps_Apps-&gt;urt.hpp" style="stroke: #A80036; stroke-width: 1.0; stroke-dasharray: 7.0,7.0;"/><path d="M186.0536,689.288 A9,9 0 0 0 172.4303 679.2629" fill="none" style="stroke: #A80036; stroke-width: 1.5;"/><!--MD5=[864f754f3dde45bd5bdd7e3ac7f74209]
link AMiRoApps_Apps to urt_osal.h--><path d="M569.1934,235.6703 C510.9686,246.7836 406,277.3144 406,353 C406,353 406,353 406,573 C406,611.5486 388.751,653.9863 377.4956,677.5746 " fill="none" id="AMiRoApps_Apps-&gt;urt_osal.h" style="stroke: #A80036; stroke-width: 1.0; stroke-dasharray: 7.0,7.0;"/><path d="M381.9134,687.7227 A9,9 0 0 0 366.7503 680.2274" fill="none" style="stroke: #A80036; stroke-width: 1.5;"/><!--MD5=[8a36d24449f2936ce6ed47578da54b80]
link AMiRoApps_Apps to alldh--><path d="M644.6579,231.7757 C758.1376,237.4663 1095.353,256.9558 1199,292 C1248.318,308.675 1299,300.9393 1299,353 C1299,353 1299,353 1299,573 C1299,614.2281 1338.1971,606.5124 1368,635 C1383.327,649.6506 1400.2148,666.9271 1412.1582,679.347 " fill="none" id="AMiRoApps_Apps-&gt;alldh" style="stroke: #A80036; stroke-width: 1.0; stroke-dasharray: 7.0,7.0;"/><path d="M1423.2073,678.659 A9,9 0 0 0 1410.9889 690.3555" fill="none" style="stroke: #A80036; stroke-width: 1.5;"/><!--MD5=[a3ba9b2cf6f7b00534fb18426bcec65a]
link AMiRoApps_Apps to cmsis.h--><path d="M569.2397,246.9148 C531.8035,266.5614 480,302.8148 480,353 C480,353 480,353 480,573 C480,579.6156 536.0556,647.2538 562.9407,679.3136 " fill="none" id="AMiRoApps_Apps-&gt;cmsis.h" style="stroke: #A80036; stroke-width: 1.0; stroke-dasharray: 7.0,7.0;"/><path d="M573.8831,679.1897 A9,9 0 0 0 560.9335 690.0712" fill="none" style="stroke: #A80036; stroke-width: 1.5;"/><!--MD5=[e884d46969ba5cf9b1ee57c38ddbcd30]
link AMiRoApps_Apps to ch.h--><path d="M644.7603,246.9148 C682.1965,266.5614 734,302.8148 734,353 C734,353 734,353 734,573 C734,614.4541 705.8473,656.3512 687.7932,678.9575 " fill="none" id="AMiRoApps_Apps-&gt;ch.h" style="stroke: #A80036; stroke-width: 1.0; stroke-dasharray: 7.0,7.0;"/><path d="M689.7051,689.9136 A9,9 0 0 0 676.6728 679.1312" fill="none" style="stroke: #A80036; stroke-width: 1.5;"/><!--MD5=[2071a98bb4e7e8ee37d173768e7feb29]
link AMiRoApps_Apps to hal.h--><path d="M644.6035,239.8888 C715.0814,259.5358 860,305.6869 860,353 C860,353 860,353 860,573 C860,611.3461 895.3865,605.596 920,635 C931.6215,648.8834 943.5618,665.6225 952.0663,678.051 " fill="none" id="AMiRoApps_Apps-&gt;hal.h" style="stroke: #A80036; stroke-width: 1.0; stroke-dasharray: 7.0,7.0;"/><path d="M963.1233,679.3118 A9,9 0 0 0 949.1064 688.7788" fill="none" style="stroke: #A80036; stroke-width: 1.5;"/><!--MD5=[a121c3c33ecbb5045f7b6c729c45e9fa]
link AMiRoApps_Configurations to AMiRoApps_Apps--><path d="M607,84.1444 C607,114.7784 607,168.7545 607,201.7551 " fill="none" id="AMiRoApps_Configurations-&gt;AMiRoApps_Apps" style="stroke: #A80036; stroke-width: 1.0; stroke-dasharray: 7.0,7.0;"/><polygon fill="#A80036" points="607,206.8646,611,197.8646,607,201.8646,603,197.8646,607,206.8646" style="stroke: #A80036; stroke-width: 1.0;"/><!--MD5=[0f375ad67faf7e3c70bf77dac842af98]
link AMiRoApps_Configurations to osconf.h--><path d="M675.6262,84.0982 C773.672,119.162 956.7039,192.4252 1090,292 C1110.3344,307.1902 1128.9816,330.7476 1138.4569,343.6926 " fill="none" id="AMiRoApps_Configurations-osconf.h" style="stroke: #A80036; stroke-width: 1.0;"/><!--MD5=[48c80b9242a12f34d40b3cf78e9ffaec]
link AMiRoApps_Configurations to urtconf.h--><path d="M536.947,66.1843 C403.721,76.9898 127,104.3825 127,145.5 C127,145.5 127,145.5 127,573 C127,620.4217 89.1006,667.6964 71.6313,686.9682 " fill="none" id="AMiRoApps_Configurations-urtconf.h" style="stroke: #A80036; stroke-width: 1.0;"/><!--MD5=[98dbdd8033450db0fd287a184b1f9895]
@startuml
skinparam componentStyle uml2

'- - - - - - - - - - - - - - - - - - - - - - - - - - - - - - - - - - - - - - - - - - - - - - - - - - - - - - - - - - - - - - - - - - - - - - - - - - - - - - -
' AMiRo-OS
'- - - - - - - - - - - - - - - - - - - - - - - - - - - - - - - - - - - - - - - - - - - - - - - - - - - - - - - - - - - - - - - - - - - - - - - - - - - - - - -

!include ../os/AMiRo-OS/docs/AMiRo-OS.uml

'- - - - - - - - - - - - - - - - - - - - - - - - - - - - - - - - - - - - - - - - - - - - - - - - - - - - - - - - - - - - - - - - - - - - - - - - - - - - - - -
' µRT
'- - - - - - - - - - - - - - - - - - - - - - - - - - - - - - - - - - - - - - - - - - - - - - - - - - - - - - - - - - - - - - - - - - - - - - - - - - - - - - -

!include ../middleware/uRT/docs/componentdiagrams/µRT.uml

'- - - - - - - - - - - - - - - - - - - - - - - - - - - - - - - - - - - - - - - - - - - - - - - - - - - - - - - - - - - - - - - - - - - - - - - - - - - - - - -
' AMiRo-Apps
'- - - - - - - - - - - - - - - - - - - - - - - - - - - - - - - - - - - - - - - - - - - - - - - - - - - - - - - - - - - - - - - - - - - - - - - - - - - - - - -

node "AMiRo-Apps" as AMiRoApps_node {
	AMiRoOS - - urt_osal.h

	component "Message Types" as AMiRoApps_MessageTypes

	component "Apps" as AMiRoApps_Apps
	AMiRoApps_Apps .down.> AMiRoApps_MessageTypes
	AMiRoApps_Apps ..( amiroos.h
	AMiRoApps_Apps ..( urt.h
	AMiRoApps_Apps ..( urt.hpp
	AMiRoApps_Apps ..( urt_osal.h
	AMiRoApps_Apps ..( alldh
	AMiRoApps_Apps ..( cmsis.h
	AMiRoApps_Apps ..( ch.h
	AMiRoApps_Apps ..( hal.h

	component "Configurations" as AMiRoApps_Configurations
	AMiRoApps_Configurations .down.> AMiRoApps_Apps
	AMiRoApps_Configurations - - osconf.h
	AMiRoApps_Configurations - - urtconf.h
}

@enduml

@startuml
skinparam componentStyle uml2


skinparam componentStyle uml2


skinparam componentStyle uml2


node "AMiRo-BLT" as AMiRoBLT_node {
	component OpenBLT #lightgrey
	component stm32flash #lightgrey

	interface amiroblt.h

	component "AMiRo-BLT" as AMiRoBLT
	AMiRoBLT -down-|> OpenBLT : forks
	AMiRoBLT .down.> stm32flash : utilizes
	AMiRoBLT -up- amiroblt.h
}



node "ChibiOS" as ChibiOS_node {
	interface hal.h #lightgrey
	interface osal.h #lightgrey
	interface cmsis.h #lightgrey
	interface ch.h #lightgrey
	interface ch.hpp #lightgrey

	interface mcuconf.h #lightgrey
	interface halconf.h #lightgrey
	interface chconf.h #lightgrey

	component "ChibiOS/HAL" as ChibiOS_HAL #lightgrey
	component "ChibiOS/RT" as ChibiOS_RT #lightgrey

	ChibiOS_HAL -up-( mcuconf.h
	ChibiOS_HAL -up-( halconf.h
	ChibiOS_HAL -up- hal.h
	ChibiOS_HAL -up-( osal.h
	ChibiOS_RT -up-( chconf.h
	ChibiOS_RT -up-( hal.h
	ChibiOS_RT -up- osal.h
	ChibiOS_RT -up- cmsis.h
	ChibiOS_RT -up- ch.h
	ChibiOS_RT -up- ch.hpp
}


skinparam componentStyle uml2


node "AMiRo-LLD" as AMiRoLLD_node {
	interface alldconf.h
	interface periphAL.h
	interface "amiro-lld.h" as alldh

	component "AMiRo-LLD" as AMiRoLLD
	AMiRoLLD -up-( alldconf.h
	AMiRoLLD -up-( periphAL.h
	AMiRoLLD -up- alldh
}



node "AMiRo-OS" as AMiRoOS_node {
	interface osconf.h
	interface amiroos.h

	component "AMiRo-OS" as AMiRoOS

	AMiRoOS -up-( osconf.h
	AMiRoOS -up- amiroos.h
}


AMiRoOS - - mcuconf.h
AMiRoOS - - halconf.h
AMiRoOS - - chconf.h
AMiRoOS - -( hal.h
AMiRoOS - -( ch.h
AMiRoOS - -( amiroblt.h
AMiRoOS - - alldconf.h
AMiRoOS - -( alldh
AMiRoOS - - periphAL.h



skinparam componentStyle uml2


node "µRT" as µRT_node {
	interface urt.h
	interface urt.hpp
	interface urtconf.h
	interface urt_osal.h

	component µRT
	µRT -up-( urt_osal.h
	µRT -up-( urtconf.h
	µRT -up- urt.h
	µRT -up- urt.hpp
}



node "AMiRo-Apps" as AMiRoApps_node {
	AMiRoOS - - urt_osal.h

	component "Message Types" as AMiRoApps_MessageTypes

	component "Apps" as AMiRoApps_Apps
	AMiRoApps_Apps .down.> AMiRoApps_MessageTypes
	AMiRoApps_Apps ..( amiroos.h
	AMiRoApps_Apps ..( urt.h
	AMiRoApps_Apps ..( urt.hpp
	AMiRoApps_Apps ..( urt_osal.h
	AMiRoApps_Apps ..( alldh
	AMiRoApps_Apps ..( cmsis.h
	AMiRoApps_Apps ..( ch.h
	AMiRoApps_Apps ..( hal.h

	component "Configurations" as AMiRoApps_Configurations
	AMiRoApps_Configurations .down.> AMiRoApps_Apps
	AMiRoApps_Configurations - - osconf.h
	AMiRoApps_Configurations - - urtconf.h
}

@enduml

PlantUML version 1.2020.15(Sun Jun 28 13:39:45 CEST 2020)
(GPL source distribution)
Java Runtime: OpenJDK Runtime Environment
JVM: OpenJDK 64-Bit Server VM
Default Encoding: UTF-8
Language: en
Country: US
--></g></svg>