<?xml version="1.0" encoding="UTF-8" standalone="no"?><svg xmlns="http://www.w3.org/2000/svg" xmlns:xlink="http://www.w3.org/1999/xlink" contentScriptType="application/ecmascript" contentStyleType="text/css" height="256px" preserveAspectRatio="none" style="width:461px;height:256px;" version="1.1" viewBox="0 0 461 256" width="461px" zoomAndPan="magnify"><defs><filter height="300%" id="f9cgwk3yqv7mo" width="300%" x="-1" y="-1"><feGaussianBlur result="blurOut" stdDeviation="2.0"/><feColorMatrix in="blurOut" result="blurOut2" type="matrix" values="0 0 0 0 0 0 0 0 0 0 0 0 0 0 0 0 0 0 .4 0"/><feOffset dx="4.0" dy="4.0" in="blurOut2" result="blurOut3"/><feBlend in="SourceGraphic" in2="blurOut3" mode="normal"/></filter></defs><g><!--cluster µRT_node--><polygon fill="#FFFFFF" filter="url(#f9cgwk3yqv7mo)" points="22,34,32,24,439,24,439,234,429,244,22,244,22,34" style="stroke: #000000; stroke-width: 1.5;"/><line style="stroke: #000000; stroke-width: 1.5;" x1="429" x2="438" y1="34" y2="25"/><line style="stroke: #000000; stroke-width: 1.5;" x1="22" x2="429" y1="34" y2="34"/><line style="stroke: #000000; stroke-width: 1.5;" x1="429" x2="429" y1="34" y2="244"/><text fill="#000000" font-family="sans-serif" font-size="14" font-weight="bold" lengthAdjust="spacingAndGlyphs" textLength="30" x="211.5" y="49.9951">µRT</text><!--entity urt.h--><ellipse cx="295" cy="93" fill="#FEFECE" filter="url(#f9cgwk3yqv7mo)" rx="8" ry="8" style="stroke: #A80036; stroke-width: 2.0;"/><text fill="#000000" font-family="sans-serif" font-size="14" lengthAdjust="spacingAndGlyphs" textLength="32" x="279" y="122.9951">urt.h</text><!--entity urt.hpp--><ellipse cx="390" cy="93" fill="#FEFECE" filter="url(#f9cgwk3yqv7mo)" rx="8" ry="8" style="stroke: #A80036; stroke-width: 2.0;"/><text fill="#000000" font-family="sans-serif" font-size="14" lengthAdjust="spacingAndGlyphs" textLength="50" x="365" y="122.9951">urt.hpp</text><!--entity urtconf.h--><ellipse cx="194" cy="93" fill="#FEFECE" filter="url(#f9cgwk3yqv7mo)" rx="8" ry="8" style="stroke: #A80036; stroke-width: 2.0;"/><text fill="#000000" font-family="sans-serif" font-size="14" lengthAdjust="spacingAndGlyphs" textLength="62" x="163" y="122.9951">urtconf.h</text><!--entity urt_osal.h--><ellipse cx="79" cy="93" fill="#FEFECE" filter="url(#f9cgwk3yqv7mo)" rx="8" ry="8" style="stroke: #A80036; stroke-width: 2.0;"/><text fill="#000000" font-family="sans-serif" font-size="14" lengthAdjust="spacingAndGlyphs" textLength="67" x="45.5" y="122.9951">urt_osal.h</text><!--entity µRT--><rect fill="#FEFECE" filter="url(#f9cgwk3yqv7mo)" height="46.2969" style="stroke: #A80036; stroke-width: 1.5;" width="68" x="210" y="182"/><rect fill="#FEFECE" height="10" style="stroke: #A80036; stroke-width: 1.5;" width="15" x="258" y="187"/><rect fill="#FEFECE" height="2" style="stroke: #A80036; stroke-width: 1.5;" width="4" x="256" y="189"/><rect fill="#FEFECE" height="2" style="stroke: #A80036; stroke-width: 1.5;" width="4" x="256" y="193"/><text fill="#000000" font-family="sans-serif" font-size="14" lengthAdjust="spacingAndGlyphs" textLength="28" x="225" y="214.9951">µRT</text><!--link urt_osal.h to µRT--><path d="M96.87,105.91 C124.15,124.1 176.61,159.07 210.95,181.97 " fill="none" id="urt_osal.h-µRT" style="stroke: #A80036; stroke-width: 1.0;"/><path d="M86.2065,108.9735 A9,9 0 0 0 95.5945 94.9035" fill="none" style="stroke: #A80036; stroke-width: 1.5;"/><!--link urtconf.h to µRT--><path d="M201.97,111.53 C210.62,130.56 224.45,161 233.87,181.71 " fill="none" id="urtconf.h-µRT" style="stroke: #A80036; stroke-width: 1.0;"/><path d="M191.3383,108.5757 A9,9 0 0 0 206.7325 101.5673" fill="none" style="stroke: #A80036; stroke-width: 1.5;"/><!--link urt.h to µRT--><path d="M291.17,102.27 C283.43,118.96 265.72,157.16 254.33,181.71 " fill="none" id="urt.h-µRT" style="stroke: #A80036; stroke-width: 1.0;"/><!--link urt.hpp to µRT--><path d="M380.87,100.88 C359.77,116.78 306.88,156.63 273.37,181.87 " fill="none" id="urt.hpp-µRT" style="stroke: #A80036; stroke-width: 1.0;"/><!--
@startuml
skinparam componentStyle uml2


node "µRT" as µRT_node {
	interface urt.h
	interface urt.hpp
	interface urtconf.h
	interface urt_osal.h

	component µRT
	µRT -up-( urt_osal.h
	µRT -up-( urtconf.h
	µRT -up- urt.h
	µRT -up- urt.hpp
}

@enduml

PlantUML version 1.2019.01(Sat Feb 09 16:32:04 CET 2019)
(LGPL source distribution)
Java Runtime: OpenJDK Runtime Environment
JVM: OpenJDK 64-Bit Server VM
Java Version: 11.0.11+9
Operating System: Linux
OS Version: 5.11.16-200.fc33.x86_64
Default Encoding: UTF-8
Language: en
Country: US
--></g></svg>